# xmcd CD database file
#
# Track frame offsets:
#	150
#	14844
#	28719
#	44543
#	62991
#	86142
#	101290
#	111631
#	124757
#	141780
#	154207
#	173483
#	194108
#
# Disc length: 2737 seconds
#
# Revision: 0
# Processed by: cddbd v1.5.2PL0 Copyright (c) Steve Scherf et al.
# Submitted via: CDex 1.70beta2
#
DISCID=c00aaf0d
DTITLE=Hilary Gardner - Monday Off
DYEAR=2006
DGENRE=Jazz
TTITLE0=I've Got the World on a String
TTITLE1=It's Only a Paper Moon
TTITLE2=Blackbird
TTITLE3=Wouldn't It Be Loverly?
TTITLE4=Li'l Darlin'
TTITLE5=Doodlin'
TTITLE6=Come Take a Trip In My Airship-Meet Me In St. Louis
TTITLE7=Cute
TTITLE8=Whirley Bird
TTITLE9=Five O'Clock Whistle
TTITLE10=So Dance Samba
TTITLE11=Almost Like Being in Love
TTITLE12=If I Only Had a Brain
EXTD=YEAR: 2006
EXTT0=
EXTT1=
EXTT2=
EXTT3=
EXTT4=
EXTT5=
EXTT6=
EXTT7=
EXTT8=
EXTT9=
EXTT10=
EXTT11=
EXTT12=
PLAYORDER=
